<svg xmlns="http://www.w3.org/2000/svg"  viewBox="0 0 50 50" width="50px" height="50px"><path d="M 2.5 0 C 1.119 0 0 1.119 0 2.5 C 0 3.881 1.119 5 2.5 5 C 2.807 5 3.0971406 4.9369375 3.3691406 4.8359375 L 3.3691406 4.8398438 L 5 15 L 8.1796875 15.539062 C 8.9996875 12.999063 12.220937 10.730625 14.960938 9.390625 L 14 6 L 4.7792969 3.5292969 L 4.7734375 3.5273438 C 4.9154375 3.2133437 5 2.867 5 2.5 C 5 1.119 3.881 0 2.5 0 z M 47.5 0 C 46.119 0 45 1.119 45 2.5 C 45 2.868 45.083562 3.2142969 45.226562 3.5292969 L 45.220703 3.5292969 L 36 6 L 35.109375 9.2207031 C 38.029375 10.670703 40.339609 13.590469 42.099609 15.480469 L 45 15 L 46.630859 4.8398438 L 46.630859 4.8359375 C 46.902859 4.9369375 47.193 5 47.5 5 C 48.881 5 50 3.881 50 2.5 C 50 1.119 48.881 0 47.5 0 z M 25 9 C 23.38 9 21.820078 9.1607031 20.330078 9.4707031 C 18.650078 9.9507031 17.110938 10.549766 15.710938 11.259766 C 13.630937 12.309766 11.860391 13.589609 10.400391 15.099609 C 8.4703906 17.089609 7.0804687 19.489297 6.2304688 22.279297 C 6.0804688 23.099297 6 23.929062 6 24.789062 C 6 30.669062 9.6894531 35.829922 15.189453 38.669922 L 10.539062 42.730469 L 10.535156 42.732422 C 10.168156 42.288422 9.621 42 9 42 C 7.895 42 7 42.895 7 44 C 7 45.105 7.895 46 9 46 C 10.105 46 11 45.105 11 44 C 11 43.83 10.972594 43.668719 10.933594 43.511719 L 10.939453 43.509766 L 17.779297 42.539062 L 20.439453 46.080078 L 20.445312 46.087891 C 19.612312 46.328891 19 47.089 19 48 C 19 49.105 19.895 50 21 50 C 22.105 50 23 49.105 23 48 C 23 47.174 22.498203 46.465156 21.783203 46.160156 L 21.789062 46.160156 L 27.019531 43.550781 L 31.75 45.439453 L 31.757812 45.443359 C 31.299813 45.810359 31 46.367 31 47 C 31 48.105 31.895 49 33 49 C 34.105 49 35 48.105 35 47 C 35 45.895 34.105 45 33 45 C 32.852 45 32.708313 45.017828 32.570312 45.048828 L 34.269531 42.5 L 40.070312 42.5 C 40.028312 42.661 40 42.826 40 43 C 40 44.105 40.895 45 42 45 C 43.105 45 44 44.105 44 43 C 44 41.895 43.105 41 42 41 C 41.631 41 41.289187 41.10625 40.992188 41.28125 L 40.990234 41.279297 L 37.029297 37.330078 C 41.279297 34.350078 44 29.839062 44 24.789062 C 44 21.909063 43.110781 19.229688 41.550781 16.929688 C 41.520781 16.889688 41.479219 16.850547 41.449219 16.810547 C 40.949219 16.230547 40.410781 15.640781 39.800781 15.050781 C 38.330781 13.630781 36.529375 12.229375 34.359375 11.109375 C 33.699375 10.769375 32.999766 10.449922 32.259766 10.169922 C 32.209766 10.139922 32.159375 10.119375 32.109375 10.109375 C 29.919375 9.389375 27.52 9 25 9 z M 25 13.5 C 28.03 13.5 30.5 15.540781 30.5 18.050781 C 30.5 19.510781 29.679297 20.860938 28.279297 21.710938 L 28.279297 23.5 L 21.720703 23.5 L 21.720703 21.710938 C 20.320703 20.860937 19.5 19.510781 19.5 18.050781 C 19.5 15.540781 21.97 13.5 25 13.5 z M 23 17 A 1 1 0 0 0 23 19 A 1 1 0 0 0 23 17 z M 27 17 A 1 1 0 0 0 27 19 A 1 1 0 0 0 27 17 z M 18 24.470703 L 25.019531 26.980469 L 32 24.470703 L 32.169922 24.529297 C 35.059922 25.579297 37.5 28.77 37.5 31.5 C 37.5 33.11 36.689922 34.540703 35.419922 35.720703 C 35.299922 35.830703 35.180781 35.930781 35.050781 36.050781 C 34.920781 36.150781 34.790391 36.259375 34.650391 36.359375 C 34.380391 36.559375 34.100547 36.759453 33.810547 36.939453 L 33.800781 36.939453 C 31.230781 38.579453 27.77 39.5 25 39.5 C 22.75 39.5 20.060234 38.879531 17.740234 37.769531 C 17.580234 37.689531 17.419766 37.609531 17.259766 37.519531 C 17.099766 37.439531 16.949062 37.359531 16.789062 37.269531 C 16.679063 37.209531 16.559219 37.140312 16.449219 37.070312 L 16.429688 37.050781 C 14.199687 35.690781 12.579063 33.789766 12.539062 31.509766 C 12.499063 28.779766 14.920078 25.579297 17.830078 24.529297 L 18 24.470703 z M 18 29 A 2 2.5 0 0 0 18 34 A 2 2.5 0 0 0 18 29 z M 32 29 A 2 2.5 0 0 0 32 34 A 2 2.5 0 0 0 32 29 z M 25.5 33 C 24.639 33 24 33.64 24 34.5 C 24 34.75 24.04925 34.969922 24.15625 35.169922 C 24.23825 35.359922 24.360625 35.520391 24.515625 35.650391 C 24.778625 35.870391 25.115 36 25.5 36 C 25.975 36 26.39325 35.800703 26.65625 35.470703 C 26.78725 35.330703 26.876781 35.149219 26.925781 34.949219 C 26.974781 34.809219 27 34.66 27 34.5 C 27 33.64 26.361 33 25.5 33 z"/></svg>